<svg xmlns="http://www.w3.org/2000/svg" viewBox="0 0 1600 1537" width="1600" height="1537" font-family="Inter, 'Noto Sans', 'DejaVu Sans', Arial, sans-serif"><rect width="1600" height="1537" fill="#0d1117"/><text x="40.0" y="74.0" font-size="44" fill="#e6edf3" font-weight="800" text-anchor="start">Oddly-llama.cpp on a 6 GB GTX 1660 Ti</text><text x="40.0" y="108.0" font-size="18" fill="#9198a1" font-weight="400" text-anchor="start">Every change since 2026-10-05, measured on this one machine. Higher is better everywhere.</text><text x="1560.0" y="74.0" font-size="18" fill="#9198a1" font-weight="400" text-anchor="end">local-1660ti @ d0ab9a678</text><rect x="40.0" y="136.0" width="241.7" height="112.0" rx="14" fill="#161b22" stroke="#30363d"/><text x="58.0" y="166.0" font-size="12" fill="#9198a1" font-weight="700" text-anchor="start">GPU</text><text x="58.0" y="200.0" font-size="21" fill="#e6edf3" font-weight="700" text-anchor="start">GTX 1660 Ti</text><text x="58.0" y="228.0" font-size="12.5" fill="#9198a1" font-weight="400" text-anchor="start">6 GB VRAM</text><rect x="295.7" y="136.0" width="241.7" height="112.0" rx="14" fill="#161b22" stroke="#30363d"/><text x="313.7" y="166.0" font-size="12" fill="#9198a1" font-weight="700" text-anchor="start">CPU</text><text x="313.7" y="200.0" font-size="21" fill="#e6edf3" font-weight="700" text-anchor="start">Ryzen 5 7600X</text><text x="313.7" y="228.0" font-size="12.5" fill="#9198a1" font-weight="400" text-anchor="start">6 cores  ·  12 threads</text><rect x="551.3" y="136.0" width="241.7" height="112.0" rx="14" fill="#161b22" stroke="#30363d"/><text x="569.3" y="166.0" font-size="12" fill="#9198a1" font-weight="700" text-anchor="start">MEMORY</text><text x="569.3" y="200.0" font-size="21" fill="#e6edf3" font-weight="700" text-anchor="start">62 GB RAM</text><text x="569.3" y="228.0" font-size="12.5" fill="#9198a1" font-weight="400" text-anchor="start">system memory</text><rect x="807.0" y="136.0" width="241.7" height="112.0" rx="14" fill="#161b22" stroke="#30363d"/><text x="825.0" y="166.0" font-size="12" fill="#9198a1" font-weight="700" text-anchor="start">POWER LIMIT</text><text x="825.0" y="200.0" font-size="21" fill="#e6edf3" font-weight="700" text-anchor="start">120 W</text><text x="825.0" y="228.0" font-size="12.5" fill="#9198a1" font-weight="400" text-anchor="start">stock 120 W</text><rect x="1062.7" y="136.0" width="241.7" height="112.0" rx="14" fill="#161b22" stroke="#30363d"/><text x="1080.7" y="166.0" font-size="12" fill="#9198a1" font-weight="700" text-anchor="start">OVERCLOCK</text><text x="1080.7" y="200.0" font-size="17" fill="#e6edf3" font-weight="700" text-anchor="start">mem +2300  core +105</text><text x="1080.7" y="228.0" font-size="12.5" fill="#9198a1" font-weight="400" text-anchor="start">offsets in MHz, perplexity-checked</text><rect x="1318.3" y="136.0" width="241.7" height="112.0" rx="14" fill="#161b22" stroke="#30363d"/><text x="1336.3" y="166.0" font-size="12" fill="#9198a1" font-weight="700" text-anchor="start">SOFTWARE</text><text x="1336.3" y="200.0" font-size="21" fill="#e6edf3" font-weight="700" text-anchor="start">driver 615.71.09</text><text x="1336.3" y="228.0" font-size="12.5" fill="#9198a1" font-weight="400" text-anchor="start">Linux 6.18.52  ·  CUDA</text><rect x="40.0" y="272.0" width="860.0" height="916.0" rx="14" fill="#161b22" stroke="#30363d"/><text x="64.0" y="310.0" font-size="22" fill="#e6edf3" font-weight="700" text-anchor="start">Models: writing speed, tokens per second</text><rect x="64.0" y="328.0" width="14.0" height="14.0" rx="3" fill="#58a6ff"/><text x="84.0" y="340.0" font-size="14" fill="#9198a1" font-weight="400" text-anchor="start">Kept</text><rect x="140.8" y="328.0" width="14.0" height="14.0" rx="3" fill="#7d8590"/><text x="160.8" y="340.0" font-size="14" fill="#9198a1" font-weight="400" text-anchor="start">Dropped</text><rect x="242.2" y="328.0" width="14.0" height="14.0" rx="3" fill="#a78bda"/><text x="262.2" y="340.0" font-size="14" fill="#9198a1" font-weight="400" text-anchor="start">Excluded</text><rect x="351.8" y="328.0" width="14.0" height="14.0" rx="3" fill="#3fb950"/><text x="371.8" y="340.0" font-size="14" fill="#9198a1" font-weight="400" text-anchor="start">Added</text><rect x="436.8" y="328.0" width="14.0" height="14.0" rx="3" fill="#f85149"/><text x="456.8" y="340.0" font-size="14" fill="#9198a1" font-weight="400" text-anchor="start">Tested, not added</text><rect x="626.2" y="328.0" width="30.0" height="14.0" rx="3" fill="#9198a1"/><text x="662.2" y="340.0" font-size="14" fill="#9198a1" font-weight="400" text-anchor="start">empty</text><rect x="716.2" y="332.0" width="30.0" height="7.0" rx="3" fill="#9198a1" fill-opacity="0.55"/><text x="752.2" y="340.0" font-size="14" fill="#9198a1" font-weight="400" text-anchor="start">8K in context</text><line x1="464.1" y1="362.0" x2="464.1" y2="1052.0" stroke="#58a6ff" stroke-width="1.5" stroke-dasharray="5 5"/><text x="464.1" y="1070.0" font-size="12" fill="#58a6ff" font-weight="400" text-anchor="middle">current swarm worker (gemma4-e2b)</text><text x="64.0" y="386.0" font-size="16" fill="#e6edf3" font-weight="600" text-anchor="start">deepseek-coder-1.3b</text><text x="64.0" y="403.0" font-size="12" fill="#9198a1" font-weight="400" text-anchor="start">1.33 GB  ·  kept</text><rect x="330.0" y="372.0" width="163.1" height="16.0" rx="4" fill="#58a6ff"/><rect x="330.0" y="392.0" width="105.3" height="8.0" rx="3" fill="#58a6ff" fill-opacity="0.55"/><text x="503.1" y="387.0" font-size="17" fill="#e6edf3" font-weight="700" text-anchor="start">167</text><text x="876.0" y="387.0" font-size="13" fill="#9198a1" font-weight="400" text-anchor="end">reads 3,027/s</text><text x="876.0" y="404.0" font-size="13" fill="#9198a1" font-weight="400" text-anchor="end">at 8K: 108</text><text x="64.0" y="432.0" font-size="16" fill="#e6edf3" font-weight="600" text-anchor="start">gemma4-e2b</text><text x="64.0" y="449.0" font-size="12" fill="#9198a1" font-weight="400" text-anchor="start">2.44 GB  ·  kept</text><rect x="330.0" y="418.0" width="134.1" height="16.0" rx="4" fill="#58a6ff"/><rect x="330.0" y="438.0" width="114.9" height="8.0" rx="3" fill="#58a6ff" fill-opacity="0.55"/><text x="474.1" y="433.0" font-size="17" fill="#e6edf3" font-weight="700" text-anchor="start">137</text><text x="876.0" y="433.0" font-size="13" fill="#9198a1" font-weight="400" text-anchor="end">reads 2,032/s</text><text x="876.0" y="450.0" font-size="13" fill="#9198a1" font-weight="400" text-anchor="end">at 8K: 117</text><text x="64.0" y="478.0" font-size="16" fill="#e6edf3" font-weight="600" text-anchor="start">qwythos-9b</text><text x="64.0" y="495.0" font-size="12" fill="#9198a1" font-weight="400" text-anchor="start">5.24 GB  ·  kept</text><rect x="330.0" y="464.0" width="25.8" height="16.0" rx="4" fill="#58a6ff"/><rect x="330.0" y="484.0" width="21.6" height="8.0" rx="3" fill="#58a6ff" fill-opacity="0.55"/><text x="365.8" y="479.0" font-size="17" fill="#e6edf3" font-weight="700" text-anchor="start">26.4</text><text x="876.0" y="479.0" font-size="13" fill="#9198a1" font-weight="400" text-anchor="end">reads 541/s</text><text x="876.0" y="496.0" font-size="13" fill="#9198a1" font-weight="400" text-anchor="end">at 8K: 22.1</text><text x="64.0" y="524.0" font-size="16" fill="#e6edf3" font-weight="600" text-anchor="start">sharp-minicpm 2B Q6_K_XL</text><text x="64.0" y="541.0" font-size="12" fill="#9198a1" font-weight="400" text-anchor="start">dropped</text><rect x="330.0" y="510.0" width="105.1" height="16.0" rx="4" fill="#7d8590"/><rect x="330.0" y="530.0" width="70.2" height="8.0" rx="3" fill="#7d8590" fill-opacity="0.55"/><text x="445.1" y="525.0" font-size="17" fill="#e6edf3" font-weight="700" text-anchor="start">107</text><text x="876.0" y="525.0" font-size="13" fill="#9198a1" font-weight="400" text-anchor="end">reads 1,875/s</text><text x="876.0" y="542.0" font-size="13" fill="#9198a1" font-weight="400" text-anchor="end">at 8K: 71.8</text><text x="64.0" y="570.0" font-size="16" fill="#e6edf3" font-weight="600" text-anchor="start">qwen2.5-3b Q5_K_M</text><text x="64.0" y="587.0" font-size="12" fill="#9198a1" font-weight="400" text-anchor="start">dropped</text><rect x="330.0" y="556.0" width="100.6" height="16.0" rx="4" fill="#7d8590"/><rect x="330.0" y="576.0" width="71.8" height="8.0" rx="3" fill="#7d8590" fill-opacity="0.55"/><text x="440.6" y="571.0" font-size="17" fill="#e6edf3" font-weight="700" text-anchor="start">103</text><text x="876.0" y="571.0" font-size="13" fill="#9198a1" font-weight="400" text-anchor="end">reads 1,410/s</text><text x="876.0" y="588.0" font-size="13" fill="#9198a1" font-weight="400" text-anchor="end">at 8K: 73.4</text><text x="64.0" y="616.0" font-size="16" fill="#e6edf3" font-weight="600" text-anchor="start">agents-a1 4B Q4_K_M</text><text x="64.0" y="633.0" font-size="12" fill="#9198a1" font-weight="400" text-anchor="start">dropped</text><rect x="330.0" y="602.0" width="77.0" height="16.0" rx="4" fill="#7d8590"/><rect x="330.0" y="622.0" width="68.9" height="8.0" rx="3" fill="#7d8590" fill-opacity="0.55"/><text x="417.0" y="617.0" font-size="17" fill="#e6edf3" font-weight="700" text-anchor="start">78.7</text><text x="876.0" y="617.0" font-size="13" fill="#9198a1" font-weight="400" text-anchor="end">reads 1,020/s</text><text x="876.0" y="634.0" font-size="13" fill="#9198a1" font-weight="400" text-anchor="end">at 8K: 70.4</text><text x="64.0" y="662.0" font-size="16" fill="#e6edf3" font-weight="600" text-anchor="start">ternary-bonsai 8B PQ2_0</text><text x="64.0" y="679.0" font-size="12" fill="#9198a1" font-weight="400" text-anchor="start">dropped</text><rect x="330.0" y="648.0" width="68.1" height="16.0" rx="4" fill="#7d8590"/><rect x="330.0" y="668.0" width="43.4" height="8.0" rx="3" fill="#7d8590" fill-opacity="0.55"/><text x="408.1" y="663.0" font-size="17" fill="#e6edf3" font-weight="700" text-anchor="start">69.6</text><text x="876.0" y="663.0" font-size="13" fill="#9198a1" font-weight="400" text-anchor="end">reads 638/s</text><text x="876.0" y="680.0" font-size="13" fill="#9198a1" font-weight="400" text-anchor="end">at 8K: 44.4</text><text x="64.0" y="708.0" font-size="16" fill="#e6edf3" font-weight="600" text-anchor="start">deepseek-r1-distill 7B Q4_K_S</text><text x="64.0" y="725.0" font-size="12" fill="#9198a1" font-weight="400" text-anchor="start">excluded</text><rect x="330.0" y="694.0" width="52.8" height="16.0" rx="4" fill="#a78bda"/><rect x="330.0" y="714.0" width="39.5" height="8.0" rx="3" fill="#a78bda" fill-opacity="0.55"/><text x="392.8" y="709.0" font-size="17" fill="#e6edf3" font-weight="700" text-anchor="start">54.0</text><text x="876.0" y="709.0" font-size="13" fill="#9198a1" font-weight="400" text-anchor="end">reads 682/s</text><text x="876.0" y="726.0" font-size="13" fill="#9198a1" font-weight="400" text-anchor="end">at 8K: 40.3</text><line x1="64.0" y1="744.0" x2="876.0" y2="744.0" stroke="#30363d" stroke-width="1.5"/><text x="64.0" y="766.0" font-size="13" fill="#3fb950" font-weight="700" text-anchor="start">NEW CANDIDATES, SAME TESTS</text><text x="64.0" y="792.0" font-size="16" fill="#e6edf3" font-weight="600" text-anchor="start">virbiusguard</text><text x="64.0" y="809.0" font-size="12" fill="#9198a1" font-weight="400" text-anchor="start">0.45 GB  ·  added</text><rect x="330.0" y="778.0" width="340.0" height="16.0" rx="4" fill="#3fb950"/><rect x="330.0" y="798.0" width="155.1" height="8.0" rx="3" fill="#3fb950" fill-opacity="0.55"/><text x="680.0" y="793.0" font-size="17" fill="#e6edf3" font-weight="700" text-anchor="start">348</text><text x="876.0" y="793.0" font-size="13" fill="#9198a1" font-weight="400" text-anchor="end">reads 6,504/s</text><text x="876.0" y="810.0" font-size="13" fill="#9198a1" font-weight="400" text-anchor="end">at 8K: 159</text><text x="64.0" y="838.0" font-size="16" fill="#e6edf3" font-weight="600" text-anchor="start">minicpm5-2b</text><text x="64.0" y="855.0" font-size="12" fill="#9198a1" font-weight="400" text-anchor="start">1.45 GB  ·  added</text><rect x="330.0" y="824.0" width="133.5" height="16.0" rx="4" fill="#3fb950"/><rect x="330.0" y="844.0" width="81.2" height="8.0" rx="3" fill="#3fb950" fill-opacity="0.55"/><text x="473.5" y="839.0" font-size="17" fill="#e6edf3" font-weight="700" text-anchor="start">136</text><text x="876.0" y="839.0" font-size="13" fill="#9198a1" font-weight="400" text-anchor="end">reads 1,970/s</text><text x="876.0" y="856.0" font-size="13" fill="#9198a1" font-weight="400" text-anchor="end">at 8K: 83.0</text><text x="64.0" y="884.0" font-size="16" fill="#e6edf3" font-weight="600" text-anchor="start">qwen3.5-4b</text><text x="64.0" y="901.0" font-size="12" fill="#9198a1" font-weight="400" text-anchor="start">2.64 GB  ·  added</text><rect x="330.0" y="870.0" width="76.7" height="16.0" rx="4" fill="#3fb950"/><rect x="330.0" y="890.0" width="61.5" height="8.0" rx="3" fill="#3fb950" fill-opacity="0.55"/><text x="416.7" y="885.0" font-size="17" fill="#e6edf3" font-weight="700" text-anchor="start">78.4</text><text x="876.0" y="885.0" font-size="13" fill="#9198a1" font-weight="400" text-anchor="end">reads 986/s</text><text x="876.0" y="902.0" font-size="13" fill="#9198a1" font-weight="400" text-anchor="end">at 8K: 62.8</text><text x="64.0" y="930.0" font-size="16" fill="#e6edf3" font-weight="600" text-anchor="start">gemma4-e2b-mtp</text><text x="64.0" y="947.0" font-size="12" fill="#9198a1" font-weight="400" text-anchor="start">2.44 GB  ·  tested, not added</text><rect x="330.0" y="916.0" width="122.3" height="16.0" rx="4" fill="#f85149"/><text x="462.3" y="931.0" font-size="17" fill="#e6edf3" font-weight="700" text-anchor="start">125</text><text x="876.0" y="931.0" font-size="13" fill="#9198a1" font-weight="400" text-anchor="end">served speed</text><text x="876.0" y="948.0" font-size="13" fill="#9198a1" font-weight="400" text-anchor="end"></text><text x="64.0" y="976.0" font-size="16" fill="#e6edf3" font-weight="600" text-anchor="start">sharp-spark-4b</text><text x="64.0" y="993.0" font-size="12" fill="#9198a1" font-weight="400" text-anchor="start">tested, not added</text><rect x="330.0" y="962.0" width="64.3" height="16.0" rx="4" fill="#f85149"/><rect x="330.0" y="982.0" width="56.9" height="8.0" rx="3" fill="#f85149" fill-opacity="0.55"/><text x="404.3" y="977.0" font-size="17" fill="#e6edf3" font-weight="700" text-anchor="start">65.7</text><text x="876.0" y="977.0" font-size="13" fill="#9198a1" font-weight="400" text-anchor="end">reads 987/s</text><text x="876.0" y="994.0" font-size="13" fill="#9198a1" font-weight="400" text-anchor="end">at 8K: 58.2</text><text x="64.0" y="1022.0" font-size="16" fill="#e6edf3" font-weight="600" text-anchor="start">qwen3.5-4b-mtp</text><text x="64.0" y="1039.0" font-size="12" fill="#9198a1" font-weight="400" text-anchor="start">2.64 GB  ·  tested, not added</text><rect x="330.0" y="1008.0" width="61.9" height="16.0" rx="4" fill="#f85149"/><text x="401.9" y="1023.0" font-size="17" fill="#e6edf3" font-weight="700" text-anchor="start">63.3</text><text x="876.0" y="1023.0" font-size="13" fill="#9198a1" font-weight="400" text-anchor="end">served speed</text><text x="876.0" y="1040.0" font-size="13" fill="#9198a1" font-weight="400" text-anchor="end"></text><rect x="920.0" y="272.0" width="640.0" height="916.0" rx="14" fill="#161b22" stroke="#30363d"/><text x="944.0" y="310.0" font-size="22" fill="#e6edf3" font-weight="700" text-anchor="start">Backend, kernels and settings: before and after</text><rect x="944.0" y="328.0" width="14.0" height="14.0" rx="3" fill="#6e7681"/><text x="964.0" y="340.0" font-size="14" fill="#9198a1" font-weight="400" text-anchor="start">before</text><rect x="1030.0" y="328.0" width="14.0" height="14.0" rx="3" fill="#f0883e"/><text x="1050.0" y="340.0" font-size="14" fill="#9198a1" font-weight="400" text-anchor="start">after  ·  tokens per second, each row on its own scale</text><text x="944.0" y="380.0" font-size="15" fill="#e6edf3" font-weight="700" text-anchor="start">No tensor-core kernels on GTX 16xx</text><text x="1536.0" y="380.0" font-size="12" fill="#9198a1" font-weight="400" text-anchor="end">a260d811e</text><rect x="944.0" y="390.0" width="147.1" height="9.0" rx="3" fill="#6e7681"/><rect x="944.0" y="401.0" width="496.0" height="9.0" rx="3" fill="#f0883e"/><text x="944.0" y="423.0" font-size="12" fill="#9198a1" font-weight="400" text-anchor="start">1.3B reads a prompt   860 to 2,901</text><text x="1536.0" y="409.0" font-size="20" fill="#f0883e" font-weight="700" text-anchor="end">3.4x</text><rect x="944.0" y="430.0" width="144.7" height="9.0" rx="3" fill="#6e7681"/><rect x="944.0" y="441.0" width="496.0" height="9.0" rx="3" fill="#f0883e"/><text x="944.0" y="463.0" font-size="12" fill="#9198a1" font-weight="400" text-anchor="start">3B reads a prompt   388 to 1,331</text><text x="1536.0" y="449.0" font-size="20" fill="#f0883e" font-weight="700" text-anchor="end">3.4x</text><rect x="944.0" y="470.0" width="154.3" height="9.0" rx="3" fill="#6e7681"/><rect x="944.0" y="481.0" width="496.0" height="9.0" rx="3" fill="#f0883e"/><text x="944.0" y="503.0" font-size="12" fill="#9198a1" font-weight="400" text-anchor="start">9B reads a prompt, 22 layers on GPU   156 to 500</text><text x="1536.0" y="489.0" font-size="20" fill="#f0883e" font-weight="700" text-anchor="end">3.2x</text><rect x="944.0" y="510.0" width="173.5" height="9.0" rx="3" fill="#6e7681"/><rect x="944.0" y="521.0" width="496.0" height="9.0" rx="3" fill="#f0883e"/><text x="944.0" y="543.0" font-size="12" fill="#9198a1" font-weight="400" text-anchor="start">9B reads a prompt, CPU only   140 to 401</text><text x="1536.0" y="529.0" font-size="20" fill="#f0883e" font-weight="700" text-anchor="end">2.9x</text><text x="944.0" y="570.0" font-size="15" fill="#e6edf3" font-weight="700" text-anchor="start">qwen35: no fused GDN path on CPU layers</text><text x="1536.0" y="570.0" font-size="12" fill="#9198a1" font-weight="400" text-anchor="end">52b730eb4</text><rect x="944.0" y="580.0" width="374.5" height="9.0" rx="3" fill="#6e7681"/><rect x="944.0" y="591.0" width="496.0" height="9.0" rx="3" fill="#f0883e"/><text x="944.0" y="613.0" font-size="12" fill="#9198a1" font-weight="400" text-anchor="start">9B writes, 22 layers on GPU   15.6 to 20.6</text><text x="1536.0" y="599.0" font-size="20" fill="#f0883e" font-weight="700" text-anchor="end">+32%</text><rect x="944.0" y="620.0" width="406.1" height="9.0" rx="3" fill="#6e7681"/><rect x="944.0" y="631.0" width="496.0" height="9.0" rx="3" fill="#f0883e"/><text x="944.0" y="653.0" font-size="12" fill="#9198a1" font-weight="400" text-anchor="start">9B writes, CPU only   7.7 to 9.4</text><text x="1536.0" y="639.0" font-size="20" fill="#f0883e" font-weight="700" text-anchor="end">+22%</text><text x="944.0" y="680.0" font-size="15" fill="#e6edf3" font-weight="700" text-anchor="start">q8_0 K / q4_0 V attention pair in the default build</text><text x="1536.0" y="680.0" font-size="12" fill="#9198a1" font-weight="400" text-anchor="end">afbf9a20c</text><rect x="944.0" y="690.0" width="447.4" height="9.0" rx="3" fill="#6e7681"/><rect x="944.0" y="701.0" width="496.0" height="9.0" rx="3" fill="#f0883e"/><text x="944.0" y="723.0" font-size="12" fill="#9198a1" font-weight="400" text-anchor="start">7B writes, empty context   48.7 to 54.0</text><text x="1536.0" y="709.0" font-size="20" fill="#f0883e" font-weight="700" text-anchor="end">+11%</text><rect x="944.0" y="730.0" width="428.6" height="9.0" rx="3" fill="#6e7681"/><rect x="944.0" y="741.0" width="496.0" height="9.0" rx="3" fill="#f0883e"/><text x="944.0" y="763.0" font-size="12" fill="#9198a1" font-weight="400" text-anchor="start">7B writes, 15K context   28.4 to 32.9</text><text x="1536.0" y="749.0" font-size="20" fill="#f0883e" font-weight="700" text-anchor="end">+16%</text><text x="944.0" y="790.0" font-size="15" fill="#e6edf3" font-weight="700" text-anchor="start">More layers on the GPU</text><text x="1536.0" y="790.0" font-size="12" fill="#9198a1" font-weight="400" text-anchor="end">models.conf</text><rect x="944.0" y="800.0" width="429.4" height="9.0" rx="3" fill="#6e7681"/><rect x="944.0" y="811.0" width="496.0" height="9.0" rx="3" fill="#f0883e"/><text x="944.0" y="833.0" font-size="12" fill="#9198a1" font-weight="400" text-anchor="start">9B writes, -ngl 22 to 25   21.3 to 24.6</text><text x="1536.0" y="819.0" font-size="20" fill="#f0883e" font-weight="700" text-anchor="end">+16%</text><rect x="944.0" y="840.0" width="328.2" height="9.0" rx="3" fill="#6e7681"/><rect x="944.0" y="851.0" width="496.0" height="9.0" rx="3" fill="#f0883e"/><text x="944.0" y="873.0" font-size="12" fill="#9198a1" font-weight="400" text-anchor="start">7B writes, -ngl 24 to 99   35.1 to 53.1</text><text x="1536.0" y="859.0" font-size="20" fill="#f0883e" font-weight="700" text-anchor="end">1.5x</text><text x="944.0" y="900.0" font-size="15" fill="#e6edf3" font-weight="700" text-anchor="start">ngram-simple speculative decoding</text><text x="1536.0" y="900.0" font-size="12" fill="#9198a1" font-weight="400" text-anchor="end">models.conf</text><rect x="944.0" y="910.0" width="70.5" height="9.0" rx="3" fill="#6e7681"/><rect x="944.0" y="921.0" width="496.0" height="9.0" rx="3" fill="#f0883e"/><text x="944.0" y="943.0" font-size="12" fill="#9198a1" font-weight="400" text-anchor="start">9B edits a code file   24.1 to 170</text><text x="1536.0" y="929.0" font-size="20" fill="#f0883e" font-weight="700" text-anchor="end">7.0x</text><rect x="944.0" y="950.0" width="157.1" height="9.0" rx="3" fill="#6e7681"/><rect x="944.0" y="961.0" width="496.0" height="9.0" rx="3" fill="#f0883e"/><text x="944.0" y="983.0" font-size="12" fill="#9198a1" font-weight="400" text-anchor="start">3B edits a code file   86.7 to 274</text><text x="1536.0" y="969.0" font-size="20" fill="#f0883e" font-weight="700" text-anchor="end">3.2x</text><text x="944.0" y="1010.0" font-size="15" fill="#e6edf3" font-weight="700" text-anchor="start">GPU overclock: memory +2300, core +105, 120 W</text><text x="1536.0" y="1010.0" font-size="12" fill="#9198a1" font-weight="400" text-anchor="end">gpu-push.py</text><rect x="944.0" y="1020.0" width="428.5" height="9.0" rx="3" fill="#6e7681"/><rect x="944.0" y="1031.0" width="496.0" height="9.0" rx="3" fill="#f0883e"/><text x="944.0" y="1053.0" font-size="12" fill="#9198a1" font-weight="400" text-anchor="start">7B writes, 4K context   43.8 to 50.7</text><text x="1536.0" y="1039.0" font-size="20" fill="#f0883e" font-weight="700" text-anchor="end">+16%</text><text x="944.0" y="1080.0" font-size="15" fill="#e6edf3" font-weight="700" text-anchor="start">Swarm worker: qwen2.5-3b replaced by gemma4-e2b</text><text x="1536.0" y="1080.0" font-size="12" fill="#9198a1" font-weight="400" text-anchor="end">models.conf</text><rect x="944.0" y="1090.0" width="373.8" height="9.0" rx="3" fill="#6e7681"/><rect x="944.0" y="1101.0" width="496.0" height="9.0" rx="3" fill="#f0883e"/><text x="944.0" y="1123.0" font-size="12" fill="#9198a1" font-weight="400" text-anchor="start">writes, empty context   103 to 136</text><text x="1536.0" y="1109.0" font-size="20" fill="#f0883e" font-weight="700" text-anchor="end">+33%</text><rect x="944.0" y="1130.0" width="327.0" height="9.0" rx="3" fill="#6e7681"/><rect x="944.0" y="1141.0" width="496.0" height="9.0" rx="3" fill="#f0883e"/><text x="944.0" y="1163.0" font-size="12" fill="#9198a1" font-weight="400" text-anchor="start">reads a prompt   1,410 to 2,139</text><text x="1536.0" y="1149.0" font-size="20" fill="#f0883e" font-weight="700" text-anchor="end">1.5x</text><rect x="40.0" y="1212.0" width="493.3" height="285.0" rx="14" fill="#161b22" stroke="#30363d"/><text x="62.0" y="1246.0" font-size="13" fill="#9198a1" font-weight="700" text-anchor="start">SERVED THROUGH THE GATEWAY</text><text x="62.0" y="1276.0" font-size="15" fill="#e6edf3" font-weight="400" text-anchor="start">deepseek-coder-1.3b, 4 slots busy</text><text x="511.3" y="1276.0" font-size="15" fill="#58a6ff" font-weight="700" text-anchor="end">465 t/s</text><text x="62.0" y="1301.0" font-size="15" fill="#e6edf3" font-weight="400" text-anchor="start">gemma4-e2b, 8 slots busy</text><text x="511.3" y="1301.0" font-size="15" fill="#58a6ff" font-weight="700" text-anchor="end">349 t/s</text><text x="62.0" y="1326.0" font-size="15" fill="#e6edf3" font-weight="400" text-anchor="start">gemma4-e2b-mtp, 8 slots busy</text><text x="511.3" y="1326.0" font-size="15" fill="#f85149" font-weight="700" text-anchor="end">324 t/s</text><text x="62.0" y="1351.0" font-size="15" fill="#e6edf3" font-weight="400" text-anchor="start">minicpm5-2b, 8 slots busy</text><text x="511.3" y="1351.0" font-size="15" fill="#3fb950" font-weight="700" text-anchor="end">305 t/s</text><text x="62.0" y="1376.0" font-size="15" fill="#e6edf3" font-weight="400" text-anchor="start">virbiusguard, 4 slots busy</text><text x="511.3" y="1376.0" font-size="15" fill="#3fb950" font-weight="700" text-anchor="end">640 t/s</text><text x="62.0" y="1401.0" font-size="15" fill="#e6edf3" font-weight="400" text-anchor="start">embeddinggemma-300m</text><text x="511.3" y="1401.0" font-size="15" fill="#58a6ff" font-weight="700" text-anchor="end">454 items/s</text><text x="62.0" y="1426.0" font-size="15" fill="#e6edf3" font-weight="400" text-anchor="start">qwen3-reranker-0.6b</text><text x="511.3" y="1426.0" font-size="15" fill="#58a6ff" font-weight="700" text-anchor="end">38.9 items/s</text><rect x="553.3" y="1212.0" width="493.3" height="285.0" rx="14" fill="#161b22" stroke="#30363d"/><text x="575.3" y="1246.0" font-size="13" fill="#9198a1" font-weight="700" text-anchor="start">JOB CHECKS (SCORE PER JOB)</text><text x="575.3" y="1276.0" font-size="15" fill="#e6edf3" font-weight="400" text-anchor="start">qwythos-9b</text><text x="1024.7" y="1276.0" font-size="15" fill="#58a6ff" font-weight="700" text-anchor="end">tools 6/6   code 3/4</text><text x="575.3" y="1301.0" font-size="15" fill="#e6edf3" font-weight="400" text-anchor="start">deepseek-coder-1.3b</text><text x="1024.7" y="1301.0" font-size="15" fill="#58a6ff" font-weight="700" text-anchor="end">code 3/4</text><text x="575.3" y="1326.0" font-size="15" fill="#e6edf3" font-weight="400" text-anchor="start">gemma4-e2b</text><text x="1024.7" y="1326.0" font-size="15" fill="#58a6ff" font-weight="700" text-anchor="end">classify 16/16   tools 6/6</text><text x="575.3" y="1351.0" font-size="15" fill="#e6edf3" font-weight="400" text-anchor="start">gemma4-e2b-mtp</text><text x="1024.7" y="1351.0" font-size="15" fill="#f85149" font-weight="700" text-anchor="end">draft 0.83x</text><text x="575.3" y="1376.0" font-size="15" fill="#e6edf3" font-weight="400" text-anchor="start">minicpm5-2b</text><text x="1024.7" y="1376.0" font-size="15" fill="#3fb950" font-weight="700" text-anchor="end">classify 16/16   tools 6/6</text><text x="575.3" y="1401.0" font-size="15" fill="#e6edf3" font-weight="400" text-anchor="start">qwen3.5-4b</text><text x="1024.7" y="1401.0" font-size="15" fill="#3fb950" font-weight="700" text-anchor="end">tools 6/6   code 4/4</text><text x="575.3" y="1426.0" font-size="15" fill="#e6edf3" font-weight="400" text-anchor="start">qwen3.5-4b-mtp</text><text x="1024.7" y="1426.0" font-size="15" fill="#f85149" font-weight="700" text-anchor="end">draft 0.65x</text><text x="575.3" y="1451.0" font-size="15" fill="#e6edf3" font-weight="400" text-anchor="start">sharp-spark-4b</text><text x="1024.7" y="1451.0" font-size="15" fill="#f85149" font-weight="700" text-anchor="end">code 4/4   tools 3/6</text><text x="575.3" y="1476.0" font-size="15" fill="#e6edf3" font-weight="400" text-anchor="start">virbiusguard</text><text x="1024.7" y="1476.0" font-size="15" fill="#3fb950" font-weight="700" text-anchor="end">guard 11/12</text><rect x="1066.7" y="1212.0" width="493.3" height="285.0" rx="14" fill="#161b22" stroke="#30363d"/><text x="1088.7" y="1246.0" font-size="13" fill="#9198a1" font-weight="700" text-anchor="start">TRIALS AND EDITS</text><text x="1088.7" y="1276.0" font-size="15" fill="#e6edf3" font-weight="400" text-anchor="start">Trials measured</text><text x="1538.0" y="1276.0" font-size="15" fill="#e6edf3" font-weight="700" text-anchor="end">19</text><text x="1088.7" y="1301.0" font-size="15" fill="#e6edf3" font-weight="400" text-anchor="start">No gain</text><text x="1538.0" y="1301.0" font-size="15" fill="#9198a1" font-weight="700" text-anchor="end">6</text><text x="1088.7" y="1326.0" font-size="15" fill="#e6edf3" font-weight="400" text-anchor="start">No-go</text><text x="1538.0" y="1326.0" font-size="15" fill="#9198a1" font-weight="700" text-anchor="end">5</text><text x="1088.7" y="1351.0" font-size="15" fill="#e6edf3" font-weight="400" text-anchor="start">Applied</text><text x="1538.0" y="1351.0" font-size="15" fill="#f0883e" font-weight="700" text-anchor="end">3</text><text x="1088.7" y="1376.0" font-size="15" fill="#e6edf3" font-weight="400" text-anchor="start">Not applied</text><text x="1538.0" y="1376.0" font-size="15" fill="#9198a1" font-weight="700" text-anchor="end">2</text><text x="1088.7" y="1401.0" font-size="15" fill="#e6edf3" font-weight="400" text-anchor="start">Commits on the branch</text><text x="1538.0" y="1401.0" font-size="15" fill="#e6edf3" font-weight="700" text-anchor="end">14</text></svg>
